<svg width="312" height="28" fill="none" xmlns="http://www.w3.org/2000/svg"><path d="M0 20.33h4.25V.757l7.575 9.684L19.369.758V20.33h4.25V0h-4.31l-7.484 9.625L4.28 0H0v20.33ZM33.818 20.796c4.67 0 6.107-3.617 6.765-7.438l.06-.35v7.321h4.251V11.2c0-5.046-4.49-5.892-8.083-5.892-5.448 0-7.843 1.896-8.8 3.384l3.143 1.458c-2.485.525-4.401 2.188-4.401 4.87 0 4.784 3.053 5.776 7.065 5.776Zm.958-10.471h5.688c-.33 4.2-1.168 10.004-6.676 10.004-1.766 0-2.664-1.196-2.664-5.017 0-3.645 1.227-4.987 3.652-4.987Zm-2.425-.38c0-.7 1.018-4.287 4.25-4.287 3.773 0 3.922 1.225 3.922 4.2h-6.735c-.509 0-.988.03-1.437.088ZM48.499 28h4.25v-8.283c.839.379 2.515 1.108 5.03 1.108 4.91 0 9.61-1.137 9.61-7.583 0-6.271-3.503-7.963-7.814-7.963-3.353 0-4.97 1.633-6.227 5.309-.3.845-.449 1.72-.599 2.595V5.746H48.5V28ZM58.886 5.775c3.233 0 4.131 3.208 4.131 7.467 0 6.154-2.215 7.145-5.927 7.145-2.514 0-3.532-.729-4.34-1.108.09-3.879.508-13.504 6.136-13.504ZM70.526 20.33h4.251c5.568 0 8.831-3.938 9.939-8.867v8.866h4.25V5.746h-4.25v1.896c-.57 11.17-7.604 12.191-9.939 12.191V5.746h-4.25v14.583ZM96.805 20.33v-7.467h9.878v7.466h4.251V5.746h-4.251v6.65h-9.879v-6.65h-4.25v14.583h4.25ZM121.138 20.796c4.67 0 6.107-3.617 6.766-7.438l.06-.35v7.321h4.251V11.2c0-5.046-4.491-5.892-8.083-5.892-5.448 0-7.843 1.896-8.801 3.384l3.143 1.458c-2.485.525-4.4 2.188-4.4 4.87 0 4.784 3.053 5.776 7.064 5.776Zm.958-10.471h5.688c-.329 4.2-1.167 10.004-6.676 10.004-1.766 0-2.664-1.196-2.664-5.017 0-3.645 1.228-4.987 3.652-4.987Zm-2.424-.38c0-.7 1.017-4.287 4.25-4.287 3.772 0 3.922 1.225 3.922 4.2h-6.736c-.508 0-.987.03-1.436.088ZM163.791 0h-15.387v20.33h4.251V.466h11.136V0ZM162.829 20.33l4.82-13.884 5.538 13.883h4.46L171.84 5.746h-4.461l-5.089 14.583h.539ZM186.679 20.796c4.67 0 6.107-3.617 6.766-7.438l.06-.35v7.321h4.251V11.2c0-5.046-4.491-5.892-8.083-5.892-5.448 0-7.843 1.896-8.801 3.384l3.143 1.458c-2.485.525-4.4 2.188-4.4 4.87 0 4.784 3.053 5.776 7.064 5.776Zm.958-10.471h5.688c-.329 4.2-1.167 10.004-6.676 10.004-1.766 0-2.664-1.196-2.664-5.017 0-3.645 1.228-4.987 3.652-4.987Zm-2.424-.38c0-.7 1.017-4.287 4.25-4.287 3.772 0 3.922 1.225 3.922 4.2h-6.736c-.508 0-.987.03-1.436.088ZM201.36 5.746v14.583h4.251V6.183h8.442v-.437H201.36ZM216.302 13.067c0 5.104 4.551 7.729 9.46 7.729 4.88 0 9.46-2.625 9.46-7.73 0-5.133-4.58-7.787-9.46-7.787-4.909 0-9.46 2.654-9.46 7.788Zm9.46-7.35c3.742 0 5.089 2.304 5.089 7.35 0 4.958-1.137 7.291-5.089 7.291-4.071 0-5.089-2.333-5.089-7.291 0-5.046 1.377-7.35 5.089-7.35ZM238.31 20.33l4.82-13.884 5.538 13.883h4.46l-5.807-14.583h-4.461l-5.089 14.583h.539ZM255.095 13.067c0 4.433 3.413 7.729 9.25 7.729 2.844 0 4.82-.788 7.155-2.625l-.239-.292c-1.946 1.633-4.371 2.421-7.095 2.421-3.473 0-4.401-3.033-4.58-5.892h11.525c0-4.841-.659-9.1-6.945-9.1-4.73 0-9.071 2.713-9.071 7.759Zm4.461.875v-.846c0-3.092.718-7.321 4.61-7.321 5.508 0 6.376 3.792 6.376 8.167h-10.986ZM283.546 20.33c3.623 0 7.604.087 7.604-3.967 0-2.917-2.155-3.675-4.76-3.909 1.647-.35 3.563-1.283 3.563-3.529 0-3.18-3.084-3.617-6.227-3.617-3.443 0-4.79 1.955-5.149 3.209V5.746h-4.221v14.583h9.19Zm-4.969-7.642h4.46c2.545 0 3.653.758 3.653 3.704 0 3.441-1.707 3.5-4.76 3.5h-3.353v-7.204Zm0-2.567c.329-2.188 1.766-4.346 4.67-4.346 1.766 0 2.395.612 2.395 3.18 0 2.974-1.198 3.295-2.964 3.295h-4.101v-2.13ZM300.924 20.796c4.67 0 6.107-3.617 6.765-7.438l.06-.35v7.321H312V11.2c0-5.046-4.49-5.892-8.083-5.892-5.448 0-7.843 1.896-8.801 3.384l3.143 1.458c-2.484.525-4.4 2.188-4.4 4.87 0 4.784 3.053 5.776 7.065 5.776Zm.958-10.471h5.687c-.329 4.2-1.167 10.004-6.675 10.004-1.766 0-2.665-1.196-2.665-5.017 0-3.645 1.228-4.987 3.653-4.987Zm-2.425-.38c0-.7 1.018-4.287 4.251-4.287 3.772 0 3.921 1.225 3.921 4.2h-6.735c-.509 0-.988.03-1.437.088Z" fill="#080808"/></svg>