<svg width="260" height="29" viewBox="0 0 260 29" fill="none" xmlns="http://www.w3.org/2000/svg">
<path d="M244.557 17.41C244.557 16.41 244.837 15.54 245.397 14.8C245.977 14.04 246.767 13.46 247.767 13.06C248.767 12.64 249.927 12.43 251.247 12.43C251.947 12.43 252.657 12.48 253.377 12.58C254.117 12.68 254.767 12.84 255.327 13.06V12.07C255.327 10.97 254.997 10.11 254.337 9.49004C253.677 8.87004 252.727 8.56004 251.487 8.56004C250.607 8.56004 249.777 8.72004 248.997 9.04004C248.217 9.34004 247.387 9.77004 246.507 10.33L245.397 8.11004C246.437 7.41004 247.477 6.89004 248.517 6.55004C249.577 6.21004 250.687 6.04004 251.847 6.04004C253.947 6.04004 255.597 6.60004 256.797 7.72004C258.017 8.82004 258.627 10.39 258.627 12.43V18.28C258.627 18.66 258.687 18.93 258.807 19.09C258.947 19.25 259.177 19.34 259.497 19.36V22C259.197 22.06 258.927 22.1 258.687 22.12C258.447 22.14 258.247 22.15 258.087 22.15C257.387 22.15 256.857 21.98 256.497 21.64C256.137 21.3 255.927 20.9 255.867 20.44L255.777 19.54C255.097 20.42 254.227 21.1 253.167 21.58C252.107 22.06 251.037 22.3 249.957 22.3C248.917 22.3 247.987 22.09 247.167 21.67C246.347 21.23 245.707 20.64 245.247 19.9C244.787 19.16 244.557 18.33 244.557 17.41ZM254.547 18.37C254.787 18.11 254.977 17.85 255.117 17.59C255.257 17.33 255.327 17.1 255.327 16.9V15.1C254.767 14.88 254.177 14.72 253.557 14.62C252.937 14.5 252.327 14.44 251.727 14.44C250.527 14.44 249.547 14.68 248.787 15.16C248.047 15.64 247.677 16.3 247.677 17.14C247.677 17.6 247.797 18.04 248.037 18.46C248.297 18.88 248.657 19.22 249.117 19.48C249.597 19.74 250.187 19.87 250.887 19.87C251.607 19.87 252.297 19.73 252.957 19.45C253.617 19.17 254.147 18.81 254.547 18.37Z" fill="#111111"/>
<path d="M229.657 22.0001V6.31006H238.057C239.057 6.31006 239.877 6.50006 240.517 6.88006C241.177 7.24006 241.667 7.71006 241.987 8.29006C242.307 8.85006 242.467 9.47006 242.467 10.1501C242.467 11.0101 242.267 11.7701 241.867 12.4301C241.467 13.0901 240.877 13.5901 240.097 13.9301C240.997 14.1901 241.727 14.6501 242.287 15.3101C242.867 15.9501 243.157 16.7801 243.157 17.8001C243.157 18.7201 242.937 19.5001 242.497 20.1401C242.057 20.7601 241.427 21.2301 240.607 21.5501C239.807 21.8501 238.867 22.0001 237.787 22.0001H229.657ZM232.777 19.7201H237.697C238.117 19.7201 238.497 19.6201 238.837 19.4201C239.197 19.2001 239.477 18.9201 239.677 18.5801C239.877 18.2201 239.977 17.8401 239.977 17.4401C239.977 17.0001 239.877 16.6101 239.677 16.2701C239.497 15.9301 239.237 15.6601 238.897 15.4601C238.577 15.2601 238.197 15.1601 237.757 15.1601H232.777V19.7201ZM232.777 13.0301H237.217C237.637 13.0301 238.007 12.9301 238.327 12.7301C238.647 12.5101 238.897 12.2201 239.077 11.8601C239.257 11.5001 239.347 11.1201 239.347 10.7201C239.347 10.1401 239.157 9.64006 238.777 9.22006C238.397 8.80006 237.897 8.59006 237.277 8.59006H232.777V13.0301Z" fill="#111111"/>
<path d="M219.525 22.3C218.305 22.3 217.195 22.09 216.195 21.67C215.215 21.23 214.365 20.64 213.645 19.9C212.925 19.14 212.365 18.28 211.965 17.32C211.585 16.34 211.395 15.3 211.395 14.2C211.395 12.72 211.735 11.37 212.415 10.15C213.095 8.91004 214.045 7.92004 215.265 7.18004C216.485 6.42004 217.915 6.04004 219.555 6.04004C221.195 6.04004 222.605 6.42004 223.785 7.18004C224.985 7.92004 225.915 8.90004 226.575 10.12C227.235 11.34 227.565 12.65 227.565 14.05C227.565 14.29 227.555 14.52 227.535 14.74C227.515 14.94 227.495 15.11 227.475 15.25H214.905C214.965 16.17 215.215 16.98 215.655 17.68C216.115 18.36 216.695 18.9 217.395 19.3C218.095 19.68 218.845 19.87 219.645 19.87C220.525 19.87 221.355 19.65 222.135 19.21C222.935 18.77 223.475 18.19 223.755 17.47L226.575 18.28C226.235 19.04 225.715 19.73 225.015 20.35C224.335 20.95 223.525 21.43 222.585 21.79C221.645 22.13 220.625 22.3 219.525 22.3ZM214.815 13.06H224.295C224.235 12.16 223.975 11.37 223.515 10.69C223.075 9.99004 222.505 9.45004 221.805 9.07004C221.125 8.67004 220.365 8.47004 219.525 8.47004C218.705 8.47004 217.945 8.67004 217.245 9.07004C216.565 9.45004 216.005 9.99004 215.565 10.69C215.125 11.37 214.875 12.16 214.815 13.06Z" fill="#111111"/>
<path d="M194.177 22.1501V19.2101C194.677 19.2101 195.127 19.0901 195.527 18.8501C195.927 18.5901 196.277 18.1701 196.577 17.5901C196.877 16.9901 197.117 16.1601 197.297 15.1001C197.477 14.0401 197.597 12.6901 197.657 11.0501L197.867 6.31006H209.057V22.0001H205.757V9.22006H200.777L200.717 11.3501C200.637 13.4501 200.447 15.2001 200.147 16.6001C199.847 17.9801 199.427 19.0801 198.887 19.9001C198.367 20.7001 197.707 21.2801 196.907 21.6401C196.127 21.9801 195.217 22.1501 194.177 22.1501Z" fill="#111111"/>
<path d="M185.04 22.3C183.8 22.3 182.69 22.09 181.71 21.67C180.73 21.23 179.88 20.63 179.16 19.87C178.46 19.11 177.92 18.25 177.54 17.29C177.16 16.31 176.97 15.27 176.97 14.17C176.97 13.07 177.16 12.03 177.54 11.05C177.92 10.07 178.46 9.21004 179.16 8.47004C179.88 7.71004 180.73 7.12004 181.71 6.70004C182.71 6.26004 183.82 6.04004 185.04 6.04004C186.26 6.04004 187.36 6.26004 188.34 6.70004C189.34 7.12004 190.19 7.71004 190.89 8.47004C191.61 9.21004 192.16 10.07 192.54 11.05C192.92 12.03 193.11 13.07 193.11 14.17C193.11 15.27 192.92 16.31 192.54 17.29C192.16 18.25 191.61 19.11 190.89 19.87C190.19 20.63 189.34 21.23 188.34 21.67C187.36 22.09 186.26 22.3 185.04 22.3ZM180.36 14.2C180.36 15.2 180.57 16.1 180.99 16.9C181.41 17.7 181.97 18.33 182.67 18.79C183.37 19.25 184.16 19.48 185.04 19.48C185.9 19.48 186.68 19.25 187.38 18.79C188.1 18.31 188.67 17.67 189.09 16.87C189.51 16.05 189.72 15.15 189.72 14.17C189.72 13.17 189.51 12.27 189.09 11.47C188.67 10.67 188.1 10.04 187.38 9.58004C186.68 9.10004 185.9 8.86004 185.04 8.86004C184.16 8.86004 183.37 9.10004 182.67 9.58004C181.97 10.06 181.41 10.7 180.99 11.5C180.57 12.28 180.36 13.18 180.36 14.2Z" fill="#111111"/>
<path d="M166.08 22.0001V6.31006H176.1V9.22006H169.38V22.0001H166.08Z" fill="#111111"/>
<path d="M148.606 17.41C148.606 16.41 148.886 15.54 149.446 14.8C150.026 14.04 150.816 13.46 151.816 13.06C152.816 12.64 153.976 12.43 155.296 12.43C155.996 12.43 156.706 12.48 157.426 12.58C158.166 12.68 158.816 12.84 159.376 13.06V12.07C159.376 10.97 159.046 10.11 158.386 9.49004C157.726 8.87004 156.776 8.56004 155.536 8.56004C154.656 8.56004 153.826 8.72004 153.046 9.04004C152.266 9.34004 151.436 9.77004 150.556 10.33L149.446 8.11004C150.486 7.41004 151.526 6.89004 152.566 6.55004C153.626 6.21004 154.736 6.04004 155.896 6.04004C157.996 6.04004 159.646 6.60004 160.846 7.72004C162.066 8.82004 162.676 10.39 162.676 12.43V18.28C162.676 18.66 162.736 18.93 162.856 19.09C162.996 19.25 163.226 19.34 163.546 19.36V22C163.246 22.06 162.976 22.1 162.736 22.12C162.496 22.14 162.296 22.15 162.136 22.15C161.436 22.15 160.906 21.98 160.546 21.64C160.186 21.3 159.976 20.9 159.916 20.44L159.826 19.54C159.146 20.42 158.276 21.1 157.216 21.58C156.156 22.06 155.086 22.3 154.006 22.3C152.966 22.3 152.036 22.09 151.216 21.67C150.396 21.23 149.756 20.64 149.296 19.9C148.836 19.16 148.606 18.33 148.606 17.41ZM158.596 18.37C158.836 18.11 159.026 17.85 159.166 17.59C159.306 17.33 159.376 17.1 159.376 16.9V15.1C158.816 14.88 158.226 14.72 157.606 14.62C156.986 14.5 156.376 14.44 155.776 14.44C154.576 14.44 153.596 14.68 152.836 15.16C152.096 15.64 151.726 16.3 151.726 17.14C151.726 17.6 151.846 18.04 152.086 18.46C152.346 18.88 152.706 19.22 153.166 19.48C153.646 19.74 154.236 19.87 154.936 19.87C155.656 19.87 156.346 19.73 157.006 19.45C157.666 19.17 158.196 18.81 158.596 18.37Z" fill="#111111"/>
<path d="M131.508 22.1501V19.2101C132.008 19.2101 132.458 19.0901 132.858 18.8501C133.258 18.5901 133.608 18.1701 133.908 17.5901C134.208 16.9901 134.448 16.1601 134.628 15.1001C134.808 14.0401 134.928 12.6901 134.988 11.0501L135.198 6.31006H146.388V22.0001H143.088V9.22006H138.108L138.048 11.3501C137.968 13.4501 137.778 15.2001 137.478 16.6001C137.178 17.9801 136.758 19.0801 136.218 19.9001C135.698 20.7001 135.038 21.2801 134.238 21.6401C133.458 21.9801 132.548 22.1501 131.508 22.1501Z" fill="#111111"/>
<path d="M117.939 22V0.699951H130.629V3.66995H121.299V22H117.939Z" fill="#111111"/>
<path d="M93.2037 17.41C93.2037 16.41 93.4837 15.54 94.0437 14.8C94.6237 14.04 95.4137 13.46 96.4137 13.06C97.4137 12.64 98.5737 12.43 99.8937 12.43C100.594 12.43 101.304 12.48 102.024 12.58C102.764 12.68 103.414 12.84 103.974 13.06V12.07C103.974 10.97 103.644 10.11 102.984 9.49004C102.324 8.87004 101.374 8.56004 100.134 8.56004C99.2537 8.56004 98.4237 8.72004 97.6437 9.04004C96.8637 9.34004 96.0337 9.77004 95.1537 10.33L94.0437 8.11004C95.0837 7.41004 96.1237 6.89004 97.1637 6.55004C98.2237 6.21004 99.3337 6.04004 100.494 6.04004C102.594 6.04004 104.244 6.60004 105.444 7.72004C106.664 8.82004 107.274 10.39 107.274 12.43V18.28C107.274 18.66 107.334 18.93 107.454 19.09C107.594 19.25 107.824 19.34 108.144 19.36V22C107.844 22.06 107.574 22.1 107.334 22.12C107.094 22.14 106.894 22.15 106.734 22.15C106.034 22.15 105.504 21.98 105.144 21.64C104.784 21.3 104.574 20.9 104.514 20.44L104.424 19.54C103.744 20.42 102.874 21.1 101.814 21.58C100.754 22.06 99.6837 22.3 98.6037 22.3C97.5637 22.3 96.6337 22.09 95.8137 21.67C94.9937 21.23 94.3537 20.64 93.8937 19.9C93.4337 19.16 93.2037 18.33 93.2037 17.41ZM103.194 18.37C103.434 18.11 103.624 17.85 103.764 17.59C103.904 17.33 103.974 17.1 103.974 16.9V15.1C103.414 14.88 102.824 14.72 102.204 14.62C101.584 14.5 100.974 14.44 100.374 14.44C99.1737 14.44 98.1937 14.68 97.4337 15.16C96.6937 15.64 96.3237 16.3 96.3237 17.14C96.3237 17.6 96.4437 18.04 96.6837 18.46C96.9437 18.88 97.3037 19.22 97.7637 19.48C98.2437 19.74 98.8337 19.87 99.5337 19.87C100.254 19.87 100.944 19.73 101.604 19.45C102.264 19.17 102.794 18.81 103.194 18.37Z" fill="#111111"/>
<path d="M77.0726 22.0001V6.31006H80.3726V12.5501H87.6626V6.31006H90.9626V22.0001H87.6626V15.4001H80.3726V22.0001H77.0726Z" fill="#111111"/>
<path d="M59.4792 22.0001V6.34006H62.7792V17.5901L70.7292 6.31006H73.7292V22.0001H70.4292V10.9901L62.5692 22.0001H59.4792Z" fill="#111111"/>
<path d="M50.1513 22.3C48.8913 22.3 47.7813 22 46.8213 21.4C45.8613 20.8 45.1013 20.02 44.5413 19.06V28.39H41.2413V6.31004H44.1513V9.13004C44.7513 8.19004 45.5313 7.44004 46.4913 6.88004C47.4513 6.32004 48.5213 6.04004 49.7013 6.04004C50.7813 6.04004 51.7713 6.26004 52.6713 6.70004C53.5713 7.12004 54.3513 7.71004 55.0113 8.47004C55.6713 9.23004 56.1813 10.1 56.5413 11.08C56.9213 12.04 57.1113 13.06 57.1113 14.14C57.1113 15.64 56.8113 17.01 56.2113 18.25C55.6313 19.49 54.8113 20.48 53.7513 21.22C52.7113 21.94 51.5113 22.3 50.1513 22.3ZM49.0713 19.48C49.7713 19.48 50.4013 19.33 50.9613 19.03C51.5413 18.73 52.0313 18.33 52.4313 17.83C52.8513 17.33 53.1713 16.76 53.3913 16.12C53.6113 15.48 53.7213 14.82 53.7213 14.14C53.7213 13.42 53.6013 12.74 53.3613 12.1C53.1213 11.46 52.7713 10.9 52.3113 10.42C51.8713 9.94004 51.3513 9.56004 50.7513 9.28004C50.1713 9.00004 49.5313 8.86004 48.8313 8.86004C48.4113 8.86004 47.9713 8.94004 47.5113 9.10004C47.0513 9.26004 46.6213 9.48004 46.2213 9.76004C45.8213 10.04 45.4713 10.37 45.1713 10.75C44.8713 11.13 44.6613 11.53 44.5413 11.95V16.06C44.8213 16.7 45.1913 17.28 45.6513 17.8C46.1113 18.3 46.6413 18.71 47.2413 19.03C47.8413 19.33 48.4513 19.48 49.0713 19.48Z" fill="#111111"/>
<path d="M23.7677 17.41C23.7677 16.41 24.0477 15.54 24.6077 14.8C25.1877 14.04 25.9777 13.46 26.9777 13.06C27.9777 12.64 29.1377 12.43 30.4577 12.43C31.1577 12.43 31.8677 12.48 32.5877 12.58C33.3277 12.68 33.9777 12.84 34.5377 13.06V12.07C34.5377 10.97 34.2077 10.11 33.5477 9.49004C32.8877 8.87004 31.9377 8.56004 30.6977 8.56004C29.8177 8.56004 28.9877 8.72004 28.2077 9.04004C27.4277 9.34004 26.5977 9.77004 25.7177 10.33L24.6077 8.11004C25.6477 7.41004 26.6877 6.89004 27.7277 6.55004C28.7877 6.21004 29.8977 6.04004 31.0577 6.04004C33.1577 6.04004 34.8077 6.60004 36.0077 7.72004C37.2277 8.82004 37.8377 10.39 37.8377 12.43V18.28C37.8377 18.66 37.8977 18.93 38.0177 19.09C38.1577 19.25 38.3877 19.34 38.7077 19.36V22C38.4077 22.06 38.1377 22.1 37.8977 22.12C37.6577 22.14 37.4577 22.15 37.2977 22.15C36.5977 22.15 36.0677 21.98 35.7077 21.64C35.3477 21.3 35.1377 20.9 35.0777 20.44L34.9877 19.54C34.3077 20.42 33.4377 21.1 32.3777 21.58C31.3177 22.06 30.2477 22.3 29.1677 22.3C28.1277 22.3 27.1977 22.09 26.3777 21.67C25.5577 21.23 24.9177 20.64 24.4577 19.9C23.9977 19.16 23.7677 18.33 23.7677 17.41ZM33.7577 18.37C33.9977 18.11 34.1877 17.85 34.3277 17.59C34.4677 17.33 34.5377 17.1 34.5377 16.9V15.1C33.9777 14.88 33.3877 14.72 32.7677 14.62C32.1477 14.5 31.5377 14.44 30.9377 14.44C29.7377 14.44 28.7577 14.68 27.9977 15.16C27.2577 15.64 26.8877 16.3 26.8877 17.14C26.8877 17.6 27.0077 18.04 27.2477 18.46C27.5077 18.88 27.8677 19.22 28.3277 19.48C28.8077 19.74 29.3977 19.87 30.0977 19.87C30.8177 19.87 31.5077 19.73 32.1677 19.45C32.8277 19.17 33.3577 18.81 33.7577 18.37Z" fill="#111111"/>
<path d="M17.91 22V6.81995L11.64 18.34H9.66L3.36 6.81995V22H0V0.699951H3.6L10.65 13.72L17.7 0.699951H21.3V22H17.91Z" fill="#111111"/>
</svg>
