<svg width="16" height="16" viewBox="0 0 16 16" fill="none" xmlns="http://www.w3.org/2000/svg">
<path d="M8 16C12.4183 16 16 12.4183 16 8C16 3.58172 12.4183 0 8 0C3.58172 0 0 3.58172 0 8C0 12.4183 3.58172 16 8 16Z" fill="#3BB7FF"/>
<path fill-rule="evenodd" clip-rule="evenodd" d="M3.62124 7.91559C5.9534 6.89951 7.50854 6.22964 8.28666 5.90599C10.5083 4.98192 10.97 4.8214 11.2709 4.8161C11.3371 4.81493 11.485 4.83133 11.5809 4.90911C11.6618 4.97478 11.6841 5.06349 11.6947 5.12576C11.7054 5.18802 11.7187 5.32986 11.7081 5.44069C11.5877 6.70568 11.0668 9.77547 10.8018 11.1923C10.6896 11.7918 10.4688 11.9928 10.255 12.0125C9.79046 12.0552 9.43768 11.7054 8.98772 11.4105C8.28362 10.9489 7.88584 10.6616 7.20239 10.2112C6.41254 9.69074 6.92456 9.40466 7.3747 8.93714C7.4925 8.81478 9.53943 6.95294 9.57905 6.78405C9.584 6.76292 9.5886 6.68418 9.54182 6.64261C9.49505 6.60103 9.42601 6.61525 9.37619 6.62655C9.30557 6.64258 8.18075 7.38604 6.00174 8.85694C5.68246 9.07618 5.39328 9.183 5.13417 9.1774C4.84853 9.17123 4.29907 9.01589 3.8906 8.88312C3.3896 8.72026 2.99142 8.63416 3.02609 8.35758C3.04415 8.21352 3.24253 8.06619 3.62124 7.91559Z" fill="white"/>
</svg>
